<svg viewBox="0 0 225 225" version="1.1" xmlns="http://www.w3.org/2000/svg" desc="Created with imagetracer.js version 1.2.6" ><path fill="rgb(245,242,224)" stroke="rgb(245,242,224)" stroke-width="0" opacity="1" d="M 133.5 32 L 134.5 34 L 133.5 32 Z " /><path fill="rgb(245,242,224)" stroke="rgb(245,242,224)" stroke-width="0" opacity="1" d="M 125.5 35 L 126 38.5 L 125 38.5 L 125.5 35 Z " /><path fill="rgb(245,242,224)" stroke="rgb(245,242,224)" stroke-width="0" opacity="1" d="M 160.5 48 L 161 51.5 L 160 51.5 L 160.5 48 Z " /><path fill="rgb(245,242,224)" stroke="rgb(245,242,224)" stroke-width="0" opacity="1" d="M 100.5 51 L 110.5 62 L 100.5 51 Z " /><path fill="rgb(245,242,224)" stroke="rgb(245,242,224)" stroke-width="0" opacity="1" d="M 200.5 52 L 203 52.5 L 200.5 53 L 200.5 52 Z " /><path fill="rgb(245,242,224)" stroke="rgb(245,242,224)" stroke-width="0" opacity="1" d="M 161.5 53 L 162.5 55 L 161.5 53 Z " /><path fill="rgb(245,242,224)" stroke="rgb(245,242,224)" stroke-width="0" opacity="1" d="M 169.5 53 L 168.5 55 L 169.5 53 Z " /><path fill="rgb(245,242,224)" stroke="rgb(245,242,224)" stroke-width="0" opacity="1" d="M 198.5 53 L 194.5 58 L 198.5 53 Z " /><path fill="rgb(245,242,224)" stroke="rgb(245,242,224)" stroke-width="0" opacity="1" d="M 204.5 53 L 205.5 55 L 204.5 53 Z " /><path fill="rgb(245,242,224)" stroke="rgb(245,242,224)" stroke-width="0" opacity="1" d="M 132.5 54 L 136 54.5 L 132.5 55 L 132.5 54 Z " /><path fill="rgb(245,242,224)" stroke="rgb(245,242,224)" stroke-width="0" opacity="1" d="M 164.5 55 L 167 55.5 L 164.5 56 L 164.5 55 Z " /><path fill="rgb(245,242,224)" stroke="rgb(245,242,224)" stroke-width="0" opacity="1" d="M 206.5 56 L 207 59.5 L 205 60.5 L 206.5 56 Z " /><path fill="rgb(245,242,224)" stroke="rgb(245,242,224)" stroke-width="0" opacity="1" d="M 141.5 63 L 145 63.5 L 141.5 64 L 141.5 63 Z " /><path fill="rgb(245,242,224)" stroke="rgb(245,242,224)" stroke-width="0" opacity="1" d="M 152.5 63 L 156 63.5 L 152.5 64 L 152.5 63 Z " /><path fill="rgb(245,242,224)" stroke="rgb(245,242,224)" stroke-width="0" opacity="1" d="M 188.5 63 L 188 64.5 L 187.5 66 L 187 64.5 L 188.5 63 Z " /><path fill="rgb(245,242,224)" stroke="rgb(245,242,224)" stroke-width="0" opacity="1" d="M 110.5 67 L 109.5 69 L 110.5 67 Z " /><path fill="rgb(245,242,224)" stroke="rgb(245,242,224)" stroke-width="0" opacity="1" d="M 104.5 69 L 108 69.5 L 104.5 70 L 104.5 69 Z " /><path fill="rgb(245,242,224)" stroke="rgb(245,242,224)" stroke-width="0" opacity="1" d="M 195.5 70 L 194.5 72 L 193 71.5 L 195.5 70 Z " /><path fill="rgb(245,242,224)" stroke="rgb(245,242,224)" stroke-width="0" opacity="1" d="M 174.5 71 L 175.5 73 L 174.5 71 Z " /><path fill="rgb(245,242,224)" stroke="rgb(245,242,224)" stroke-width="0" opacity="1" d="M 120.5 72 L 118.5 75 L 120.5 72 Z " /><path fill="rgb(245,242,224)" stroke="rgb(245,242,224)" stroke-width="0" opacity="1" d="M 179.5 75 L 181.5 78 L 179.5 75 Z " /><path fill="rgb(245,242,224)" stroke="rgb(245,242,224)" stroke-width="0" opacity="1" d="M 114.5 78 L 112.5 81 L 114.5 78 Z " /><path fill="rgb(245,242,224)" stroke="rgb(245,242,224)" stroke-width="0" opacity="1" d="M 184.5 81 L 185.5 83 L 184.5 81 Z " /><path fill="rgb(245,242,224)" stroke="rgb(245,242,224)" stroke-width="0" opacity="1" d="M 222.5 86 L 224.5 89 L 222.5 86 Z " /><path fill="rgb(245,242,224)" stroke="rgb(245,242,224)" stroke-width="0" opacity="1" d="M 224.5 93 L 222.5 96 L 224.5 93 Z " /><path fill="rgb(245,242,224)" stroke="rgb(245,242,224)" stroke-width="0" opacity="1" d="M 203.5 97 L 204.5 99 L 203.5 97 Z " /><path fill="rgb(245,242,224)" stroke="rgb(245,242,224)" stroke-width="0" opacity="1" d="M 206.5 99 L 209 99.5 L 206.5 100 L 206.5 99 Z " /><path fill="rgb(245,242,224)" stroke="rgb(245,242,224)" stroke-width="0" opacity="1" d="M 193.5 103 L 194 113.5 L 193 113.5 L 193.5 103 Z " /><path fill="rgb(245,242,224)" stroke="rgb(245,242,224)" stroke-width="0" opacity="1" d="M 201.5 124 L 202 127.5 L 201 127.5 L 201.5 124 Z " /><path fill="rgb(245,242,224)" stroke="rgb(245,242,224)" stroke-width="0" opacity="1" d="M 222.5 125 L 223.5 127 L 222.5 125 Z " /><path fill="rgb(245,242,224)" stroke="rgb(245,242,224)" stroke-width="0" opacity="1" d="M 11.5 127 L 10.5 129 L 11.5 127 Z " /><path fill="rgb(245,242,224)" stroke="rgb(245,242,224)" stroke-width="0" opacity="1" d="M 183.5 137 L 177.5 144 L 183.5 137 Z " /><path fill="rgb(245,242,224)" stroke="rgb(245,242,224)" stroke-width="0" opacity="1" d="M 176.5 145 L 177 147.5 L 176 147.5 L 176.5 145 Z " /><path fill="rgb(245,242,224)" stroke="rgb(245,242,224)" stroke-width="0" opacity="1" d="M 176.5 149 L 177 153.5 L 176 153.5 L 176.5 149 Z " /><path fill="rgb(245,242,224)" stroke="rgb(245,242,224)" stroke-width="0" opacity="1" d="M 194.5 149 L 195.5 151 L 194.5 149 Z " /><path fill="rgb(245,242,224)" stroke="rgb(245,242,224)" stroke-width="0" opacity="1" d="M 186.5 156 L 195.5 166 L 186.5 156 Z " /><path fill="rgb(245,242,224)" stroke="rgb(245,242,224)" stroke-width="0" opacity="1" d="M 9.5 180 L 12.5 184 L 9.5 180 Z " /><path fill="rgb(245,242,224)" stroke="rgb(245,242,224)" stroke-width="0" opacity="1" d="M 35.5 193 L 138 193.5 L 35.5 194 L 35.5 193 Z " /><path fill="rgb(255,255,255)" stroke="rgb(255,255,255)" stroke-width="0" opacity="1" d="M 0 0 L 225 0 L 225 87.5 L 222.5 86 L 216.5 86 L 208.5 88 L 202 92.5 Q 201.4 97.6 204.5 99 L 208.5 100 L 220.5 97 L 224.5 94 L 225 225 L 0.5 225 L 0 224.5 L 0 162.5 L 1 162.5 Q 2.9 177.1 12.5 184 L 23.5 191 L 35.5 194 L 137.5 194 L 153.5 188 L 169 174.5 L 175 162.5 L 177 153.5 L 177 145.5 L 176.5 144 L 184 137.5 Q 194.6 126.1 194 103.5 Q 190.9 85.1 179.5 75 Q 171.6 67.4 159.5 64 Q 152.4 61.6 141.5 63 Q 122.1 67.1 112 80.5 L 109.5 84 L 92.5 78 L 74.5 78 Q 50.5 82.5 39 99.5 Q 33 106.8 31 117 Q 18 119.9 10 128.5 Q 2.8 135.3 0.5 147 L 0 0 Z M 129 32 L 125 36 L 128 50 L 130 54 L 133 55 Q 138 56 139 52 L 139 47 L 135 34 Q 134 31 129 32 Z M 169 32 L 167 33 L 163 38 L 160 49 L 161 54 L 165 56 L 169 55 L 172 49 L 174 36 L 169 32 Z M 96 50 L 93 51 L 92 54 L 92 58 L 105 70 L 110 69 L 112 65 L 111 62 L 101 51 L 96 50 Z M 201 52 L 187 65 Q 186 71 191 72 L 195 72 L 207 60 L 206 55 L 201 52 Z M 205 121 L 202 122 L 201 128 L 205 131 L 219 135 L 222 134 Q 225 133 224 127 Q 217 121 205 121 Z M 190 147 L 185 151 L 186 157 L 196 166 L 202 167 L 205 163 Q 204 157 199 155 Q 200 152 198 153 L 196 151 L 190 147 Z " /><path fill="rgb(255,255,255)" stroke="rgb(255,255,255)" stroke-width="0" opacity="1" d="M 86.5 93 L 101.5 96 L 110 103.5 L 111 108 L 96.5 102 L 79.5 101 L 70.5 103 L 61.5 107 L 68.5 99 L 73.5 96 L 86.5 93 Z " /><path fill="rgb(250,189,8)" stroke="rgb(250,189,8)" stroke-width="0" opacity="1" d="M 141.5 106 L 144 106.5 L 141.5 107 L 141.5 106 Z " /><path fill="rgb(250,189,8)" stroke="rgb(250,189,8)" stroke-width="0" opacity="1" d="M 160.5 114 L 165.5 120 L 160.5 114 Z " /><path fill="rgb(162,227,246)" stroke="rgb(162,227,246)" stroke-width="0" opacity="1" d="M 89.5 78 L 92 78.5 L 89.5 79 L 89.5 78 Z " /><path fill="rgb(162,227,246)" stroke="rgb(162,227,246)" stroke-width="0" opacity="1" d="M 50.5 88 L 49.5 90 L 50.5 88 Z " /><path fill="rgb(162,227,246)" stroke="rgb(162,227,246)" stroke-width="0" opacity="1" d="M 118.5 101 L 119.5 103 L 118.5 101 Z " /><path fill="rgb(162,227,246)" stroke="rgb(162,227,246)" stroke-width="0" opacity="1" d="M 158.5 130 L 159 134.5 L 158 134.5 L 158.5 130 Z " /><path fill="rgb(162,227,246)" stroke="rgb(162,227,246)" stroke-width="0" opacity="1" d="M 0.5 147 L 1 149.5 L 0 149.5 L 0.5 147 Z " /><path fill="rgb(162,227,246)" stroke="rgb(162,227,246)" stroke-width="0" opacity="1" d="M 160.5 182 L 159.5 184 L 160.5 182 Z " /><path fill="rgb(254,210,12)" stroke="rgb(254,210,12)" stroke-width="0" opacity="1" d="M 166.5 33 L 165.5 35 L 166.5 33 Z " /><path fill="rgb(254,210,12)" stroke="rgb(254,210,12)" stroke-width="0" opacity="1" d="M 138.5 47 L 139 50.5 L 138 50.5 L 138.5 47 Z " /><path fill="rgb(254,210,12)" stroke="rgb(254,210,12)" stroke-width="0" opacity="1" d="M 137.5 52 L 136.5 54 L 137.5 52 Z " /><path fill="rgb(254,210,12)" stroke="rgb(254,210,12)" stroke-width="0" opacity="1" d="M 92.5 54 L 93 56.5 L 92 56.5 L 92.5 54 Z " /><path fill="rgb(254,210,12)" stroke="rgb(254,210,12)" stroke-width="0" opacity="1" d="M 93.5 58 L 101.5 67 L 93.5 58 Z " /><path fill="rgb(254,210,12)" stroke="rgb(254,210,12)" stroke-width="0" opacity="1" d="M 193.5 58 L 189.5 63 L 193.5 58 Z " /><path fill="rgb(254,210,12)" stroke="rgb(254,210,12)" stroke-width="0" opacity="1" d="M 204.5 61 L 196.5 70 L 204.5 61 Z " /><path fill="rgb(254,210,12)" stroke="rgb(254,210,12)" stroke-width="0" opacity="1" d="M 145.5 63 L 151.5 63 L 164.5 66 Q 176.7 70.8 184 80.5 L 141.5 106 L 132.5 106 L 117.5 89 L 110 84.5 L 117.5 75 L 129.5 67 L 145.5 63 Z " /><path fill="rgb(254,210,12)" stroke="rgb(254,210,12)" stroke-width="0" opacity="1" d="M 188.5 69 L 189.5 71 L 188.5 69 Z " /><path fill="rgb(254,210,12)" stroke="rgb(254,210,12)" stroke-width="0" opacity="1" d="M 218.5 86 L 222 86.5 L 218.5 87 L 218.5 86 Z " /><path fill="rgb(254,210,12)" stroke="rgb(254,210,12)" stroke-width="0" opacity="1" d="M 204.5 90 L 203.5 92 L 204.5 90 Z " /><path fill="rgb(254,210,12)" stroke="rgb(254,210,12)" stroke-width="0" opacity="1" d="M 202.5 128 L 203.5 130 L 202.5 128 Z " /><path fill="rgb(254,210,12)" stroke="rgb(254,210,12)" stroke-width="0" opacity="1" d="M 222.5 132 L 221.5 134 L 222.5 132 Z " /><path fill="rgb(254,210,12)" stroke="rgb(254,210,12)" stroke-width="0" opacity="1" d="M 184.5 135 L 183.5 137 L 184.5 135 Z " /><path fill="rgb(254,210,12)" stroke="rgb(254,210,12)" stroke-width="0" opacity="1" d="M 201.5 157 L 203.5 160 L 201.5 157 Z " /><path fill="rgb(254,210,12)" stroke="rgb(254,210,12)" stroke-width="0" opacity="1" d="M 203.5 164 L 202.5 166 L 203.5 164 Z " /><path fill="rgb(255,193,6)" stroke="rgb(255,193,6)" stroke-width="0" opacity="1" d="M 129.5 32 L 135 34.5 L 138 44.5 L 138 51.5 Q 137 55 131.5 54 L 129 50.5 L 126 35.5 L 127 33 L 129.5 32 Z " /><path fill="rgb(255,193,6)" stroke="rgb(255,193,6)" stroke-width="0" opacity="1" d="M 167.5 33 Q 172.3 32.3 173 35.5 L 174 37.5 L 169 54 L 163.5 55 Q 159.8 53.8 161 47.5 L 164 36.5 L 167.5 33 Z " /><path fill="rgb(255,193,6)" stroke="rgb(255,193,6)" stroke-width="0" opacity="1" d="M 94 51 L 99.5 51 L 110 61.5 L 111 65.5 L 108.5 69 L 102 68 L 102 66.5 L 93 57.5 L 93 53.5 L 94 51 Z " /><path fill="rgb(255,193,6)" stroke="rgb(255,193,6)" stroke-width="0" opacity="1" d="M 199.5 53 Q 205 52 206 55.5 L 206 59.5 L 194.5 71 Q 189 72 188 68.5 L 188 64.5 L 199.5 53 Z " /><path fill="rgb(255,193,6)" stroke="rgb(255,193,6)" stroke-width="0" opacity="1" d="M 182.5 81 L 185 82.5 Q 190.7 90.3 193 101.5 L 193 115.5 Q 189.7 133.7 177.5 143 Q 174.5 143.9 176 139.5 Q 171.9 123.1 160.5 114 Q 153.1 107.9 142 105.5 L 182.5 81 Z " /><path fill="rgb(255,193,6)" stroke="rgb(255,193,6)" stroke-width="0" opacity="1" d="M 215.5 87 Q 222.2 85.3 224 88.5 L 225 91.5 L 222.5 95 L 209.5 99 L 205.5 99 Q 202 98 203 92.5 L 205.5 90 L 215.5 87 Z " /><path fill="rgb(255,193,6)" stroke="rgb(255,193,6)" stroke-width="0" opacity="1" d="M 205.5 121 Q 216 122 223 126.5 L 224 130.5 Q 223.3 134.7 217.5 134 L 206.5 131 L 202 127.5 L 203 122 L 205.5 121 Z " /><path fill="rgb(255,193,6)" stroke="rgb(255,193,6)" stroke-width="0" opacity="1" d="M 188.5 148 L 193.5 149 L 201 156.5 L 204 160.5 L 204 163.5 L 198.5 167 L 186 155.5 L 185 152.5 L 188.5 148 Z " /><path fill="rgb(163,237,253)" stroke="rgb(163,237,253)" stroke-width="0" opacity="1" d="M 79.5 86 Q 105.9 86.1 118 100.5 L 124 108.5 Q 112.1 112.6 105 121.5 L 102 127.5 Q 102.5 131.5 107.5 131 L 120.5 119 Q 127.3 114.3 138.5 114 L 147.5 116 L 157 122.5 Q 159.8 128.8 158 139.5 Q 154.9 153.9 144.5 161 Q 137.2 166.7 126.5 169 L 24.5 169 L 16.5 167 L 9 163 Q 7.1 158.9 8 150.5 Q 10.4 138.4 18.5 132 Q 26.1 125.4 38 124 Q 40.6 107.3 51.5 98 L 63.5 90 L 79.5 86 Z M 87 93 L 74 96 L 69 99 L 62 107 L 71 103 L 80 101 L 97 102 L 111 108 L 110 104 L 102 96 L 87 93 Z " /><path fill="rgb(39,129,196)" stroke="rgb(39,129,196)" stroke-width="0" opacity="1" d="M 78.5 78 Q 110.9 78.1 125 96.5 L 132.5 107 L 137.5 106 Q 139.3 108.8 145.5 107 L 153.5 110 L 167 121.5 Q 177.7 132.8 176 156.5 Q 172.5 173 161.5 182 Q 152.4 189.9 138.5 193 L 32.5 193 Q 16.2 189.8 8 178.5 L 1 164.5 L 0 150.5 Q 2.8 133.3 14.5 125 L 32 116.5 Q 36.1 100.1 47.5 91 L 62.5 82 L 78.5 78 Z M 75 86 Q 63 88 56 94 Q 42 103 38 123 L 21 130 Q 11 136 8 148 L 8 162 L 13 173 Q 19 182 32 185 L 140 185 L 155 178 L 163 170 L 167 162 L 169 153 L 167 138 L 162 128 Q 156 117 143 114 L 132 114 Q 121 117 115 123 L 109 130 Q 104 131 103 129 L 104 124 Q 112 114 124 109 L 122 105 Q 114 93 100 88 Q 90 84 75 86 Z " /><path fill="rgb(135,222,242)" stroke="rgb(135,222,242)" stroke-width="0" opacity="1" d="M 74.5 86 L 77 86.5 L 74.5 87 L 74.5 86 Z " /><path fill="rgb(135,222,242)" stroke="rgb(135,222,242)" stroke-width="0" opacity="1" d="M 90.5 86 L 93 86.5 L 90.5 87 L 90.5 86 Z " /><path fill="rgb(135,222,242)" stroke="rgb(135,222,242)" stroke-width="0" opacity="1" d="M 58.5 92 L 57.5 94 L 58.5 92 Z " /><path fill="rgb(135,222,242)" stroke="rgb(135,222,242)" stroke-width="0" opacity="1" d="M 55.5 94 L 53.5 97 L 55.5 94 Z " /><path fill="rgb(135,222,242)" stroke="rgb(135,222,242)" stroke-width="0" opacity="1" d="M 112.5 95 L 113.5 97 L 112.5 95 Z " /><path fill="rgb(135,222,242)" stroke="rgb(135,222,242)" stroke-width="0" opacity="1" d="M 46.5 103 L 45.5 105 L 46.5 103 Z " /><path fill="rgb(135,222,242)" stroke="rgb(135,222,242)" stroke-width="0" opacity="1" d="M 120.5 103 L 121.5 105 L 120.5 103 Z " /><path fill="rgb(135,222,242)" stroke="rgb(135,222,242)" stroke-width="0" opacity="1" d="M 122.5 106 L 123.5 108 L 122.5 106 Z " /><path fill="rgb(135,222,242)" stroke="rgb(135,222,242)" stroke-width="0" opacity="1" d="M 133.5 106 L 137 106.5 L 133.5 107 L 133.5 106 Z " /><path fill="rgb(135,222,242)" stroke="rgb(135,222,242)" stroke-width="0" opacity="1" d="M 131.5 114 L 134 114.5 L 131.5 115 L 131.5 114 Z " /><path fill="rgb(135,222,242)" stroke="rgb(135,222,242)" stroke-width="0" opacity="1" d="M 140.5 114 L 143 114.5 L 140.5 115 L 140.5 114 Z " /><path fill="rgb(135,222,242)" stroke="rgb(135,222,242)" stroke-width="0" opacity="1" d="M 109.5 117 L 106.5 121 L 109.5 117 Z " /><path fill="rgb(135,222,242)" stroke="rgb(135,222,242)" stroke-width="0" opacity="1" d="M 152.5 118 L 153.5 120 L 152.5 118 Z " /><path fill="rgb(135,222,242)" stroke="rgb(135,222,242)" stroke-width="0" opacity="1" d="M 114.5 123 L 111.5 127 L 114.5 123 Z " /><path fill="rgb(135,222,242)" stroke="rgb(135,222,242)" stroke-width="0" opacity="1" d="M 33.5 124 L 36 124.5 L 33.5 125 L 33.5 124 Z " /><path fill="rgb(135,222,242)" stroke="rgb(135,222,242)" stroke-width="0" opacity="1" d="M 159.5 125 L 161.5 128 L 159.5 125 Z " /><path fill="rgb(135,222,242)" stroke="rgb(135,222,242)" stroke-width="0" opacity="1" d="M 13.5 137 L 12.5 139 L 13.5 137 Z " /><path fill="rgb(135,222,242)" stroke="rgb(135,222,242)" stroke-width="0" opacity="1" d="M 168.5 148 L 169 152.5 L 168 152.5 L 168.5 148 Z " /><path fill="rgb(135,222,242)" stroke="rgb(135,222,242)" stroke-width="0" opacity="1" d="M 167.5 156 L 168 158.5 L 167 158.5 L 167.5 156 Z " /><path fill="rgb(135,222,242)" stroke="rgb(135,222,242)" stroke-width="0" opacity="1" d="M 11.5 169 L 12.5 171 L 11.5 169 Z " /><path fill="rgb(135,222,242)" stroke="rgb(135,222,242)" stroke-width="0" opacity="1" d="M 162.5 169 L 160.5 172 L 162.5 169 Z " /><path fill="rgb(135,222,242)" stroke="rgb(135,222,242)" stroke-width="0" opacity="1" d="M 13.5 172 L 14.5 174 L 13.5 172 Z " /><path fill="rgb(135,222,242)" stroke="rgb(135,222,242)" stroke-width="0" opacity="1" d="M 156.5 175 L 154.5 178 L 156.5 175 Z " /><path fill="rgb(135,222,242)" stroke="rgb(135,222,242)" stroke-width="0" opacity="1" d="M 19.5 178 L 20.5 180 L 19.5 178 Z " /><path fill="rgb(135,222,242)" stroke="rgb(135,222,242)" stroke-width="0" opacity="1" d="M 152.5 178 L 151.5 180 L 152.5 178 Z " /><path fill="rgb(136,223,243)" stroke="rgb(136,223,243)" stroke-width="0" opacity="1" d="M 157.5 123 Q 164 129.5 167 139.5 L 168 155.5 Q 165.5 168 157.5 175 Q 149.6 182.1 137.5 185 L 33.5 185 Q 21.4 182.6 15 174.5 L 11 168.5 L 10 163.5 L 12.5 165 L 22.5 169 L 128.5 169 Q 140.2 165.4 148 159 L 157 144.5 L 159 130.5 L 157.5 123 Z " /></svg>